<?xml version="1.0" encoding="utf-8"?>
<!-- Generator: Adobe Illustrator 24.3.0, SVG Export Plug-In . SVG Version: 6.00 Build 0)  -->
<svg version="1.1" id="Layer_1" xmlns="http://www.w3.org/2000/svg" xmlns:xlink="http://www.w3.org/1999/xlink" x="0px" y="0px"
	 viewBox="0 0 281.59 418.14" style="enable-background:new 0 0 281.59 418.14;" xml:space="preserve">
<style type="text/css">
	.st0{fill:#E63A32;}
	.st1{fill:#F0534E;}
	.st2{opacity:0.3;fill:#F0534E;}
	.st3{opacity:0.3;fill:#E63A32;}
	.st4{fill:#010101;}
	.st5{fill:#763718;}
	.st6{fill:#D3CAAF;}
</style>
<g>
	<g>
		<path class="st0" d="M249.27,234.31c0,3.16-1.52,6.22-4.36,9.11c-3.29-4.34-6.99-8.35-11.04-11.96
			c-6.69-5.97-14.34-10.87-22.69-14.42c-4.22-1.81-8.63-3.27-13.18-4.35c-6.01-1.43-12.27-2.2-18.7-2.23l-69.23-0.28
			c-26.71-0.11-50.61,12.62-65.82,32.35c-1.36,1.76-2.65,3.57-3.86,5.43c0,0.01,0,0.01,0,0.01c-0.29-0.18-0.57-0.36-0.84-0.56
			c-0.31-0.2-0.6-0.4-0.89-0.61c-0.35-0.25-0.68-0.5-1.01-0.75c-0.3-0.23-0.59-0.46-0.87-0.69c-1.41-1.15-2.61-2.34-3.57-3.56
			c-0.19-0.25-0.38-0.49-0.55-0.74c-0.18-0.24-0.34-0.49-0.5-0.74c-0.32-0.49-0.6-0.99-0.82-1.49c-0.11-0.25-0.22-0.51-0.32-0.76
			c-0.49-1.23-0.74-2.49-0.74-3.76c0-0.9,0.13-1.8,0.37-2.68l3.06-22.01L55.18,54.95h169.19l2.96,21.32l9.93,71.53l11.64,83.83
			C249.14,232.52,249.27,233.41,249.27,234.31z"/>
		<path class="st1" d="M224.36,54.95c0,11.8-37.87,21.37-84.59,21.37c-46.72,0-84.59-9.56-84.59-21.37
			c0-11.8,37.87-21.36,84.59-21.36C186.49,33.58,224.36,43.15,224.36,54.95z"/>
		<path class="st2" d="M55.18,54.95c0,4.75,6.16,9.14,16.56,12.7c14.86,2.66,33.02,4.23,52.63,4.23c50.3,0,91.08-10.3,91.08-23
			c0-1.44-0.52-2.84-1.52-4.21c-14.39-6.6-42.2-11.08-74.15-11.08C93.05,33.58,55.18,43.15,55.18,54.95z"/>
		<path class="st3" d="M249.27,234.31c0,3.16-1.52,6.22-4.36,9.11c-3.29-4.34-6.99-8.35-11.04-11.96
			c-6.69-5.97-14.34-10.87-22.69-14.42c-4.22-1.81-8.63-3.27-13.18-4.35c-6.01-1.43-12.27-2.2-18.7-2.23l-69.23-0.28
			c-26.71-0.11-50.61,12.62-65.82,32.35c-1.36,1.76-2.65,3.57-3.86,5.43c0,0.01,0,0.01,0,0.01c-0.29-0.18-0.57-0.36-0.84-0.56
			c-0.31-0.2-0.6-0.4-0.89-0.61c-0.35-0.25-0.68-0.5-1.01-0.75c-0.3-0.23-0.59-0.46-0.87-0.69c-1.41-1.15-2.61-2.34-3.57-3.56
			c-0.19-0.25-0.38-0.49-0.55-0.74c-0.18-0.24-0.34-0.49-0.5-0.74c-0.32-0.49-0.6-0.99-0.82-1.49c-0.11-0.25-0.22-0.51-0.32-0.76
			c-0.49-1.23-0.74-2.49-0.74-3.76c0-0.9,0.13-1.8,0.37-2.68l3.06-22.01c50.3-0.22,126.66-15.86,169.14-77.98
			c1.88-2.74,3.69-5.57,5.42-8.49c1.32-2.21,2.59-4.48,3.82-6.8c0.95-1.78,1.87-3.59,2.76-5.44c5.07-10.46,9.29-21.98,12.48-34.64
			l9.93,71.53l11.64,83.83C249.14,232.52,249.27,233.41,249.27,234.31z"/>
		<path class="st3" d="M31.02,238.07c4.25,1.66,8.7,3.15,13.23,4.46c-1.36,1.76-2.65,3.57-3.86,5.43c-0.29-0.18-0.57-0.36-0.84-0.55
			c-0.31-0.2-0.6-0.4-0.89-0.61c-0.35-0.25-0.68-0.5-1.01-0.75c-0.3-0.23-0.59-0.46-0.87-0.69c-1.41-1.16-2.61-2.35-3.57-3.56
			c-0.19-0.25-0.38-0.49-0.55-0.74c-0.18-0.24-0.34-0.49-0.5-0.74c-0.31-0.49-0.58-0.99-0.82-1.49
			C31.23,238.58,31.12,238.32,31.02,238.07z"/>
		<path class="st3" d="M249.27,234.31c0,3.16-1.52,6.22-4.36,9.11c-3.29-4.34-6.99-8.35-11.04-11.96
			c-6.69-5.97-14.34-10.87-22.69-14.42c8.07-7.42,14.65-16.2,19.21-26.46c5.39-12.13,7.97-26.32,6.87-42.78l11.64,83.83
			C249.14,232.52,249.27,233.41,249.27,234.31z"/>
	</g>
	<path class="st4" d="M144.32,52.69l-0.98-11.31c0-0.75-1.53-1.37-3.41-1.37c-1.88,0-3.41,0.61-3.41,1.37l-0.99,11.31
		c-0.01,0.06-0.01,0.11-0.01,0.17c0,1.15,1.98,2.08,4.41,2.08c2.44,0,4.41-0.93,4.41-2.08C144.34,52.81,144.33,52.75,144.32,52.69z"
		/>
	<path class="st4" d="M225.86,131.74c0,5.59-5.15,10.12-11.5,10.12c-6.35,0-11.5-4.53-11.5-10.12c0-5.59,5.15-10.12,11.5-10.12
		C220.71,121.62,225.86,126.15,225.86,131.74z"/>
	<rect x="206.96" y="139.49" class="st4" width="14.89" height="5.64"/>
	<path class="st4" d="M233.87,231.46c-6.69-5.97-14.34-10.87-22.69-14.42c-4.22-1.81-8.63-3.27-13.18-4.35
		c2.46-33.64,5.67-65.92,8.96-67.56c3.33-1.67,11.65-1.82,14.89,0c3.16,1.77,6.09,21.29,8.54,45.45
		C231.7,203.54,232.88,217.85,233.87,231.46z"/>
	<g>
		<path class="st4" d="M215.7,133.34c-2.86-5.65-3.4-13.7-3.88-20.81c-0.14-2.07-0.27-4.03-0.45-5.81
			c-0.45-4.44-0.79-9.01-1.11-13.42c-0.3-4.01-0.6-8.16-0.99-12.13c-0.66-6.81-1.41-14.53-5.82-20.63
			c-4.46-6.17-13.25-8.56-21.12-10.31c-3.87-0.86-8.02-1.53-12.04-2.17c-3.76-0.6-7.65-1.22-11.37-2.01
			c-2.96-0.63-5.42-1.67-7.79-2.68c-1.13-0.48-2.29-0.98-3.51-1.43c-1.66-0.61-6.35-0.95-7.27-0.53c0.08-0.04,0.34-0.24,0.45-0.62
			c0.1-0.39-0.02-0.7-0.09-0.82l-2.57,1.79c-0.67-0.97-0.45-1.92-0.01-2.49c1.74-2.25,9.61-0.63,10.58-0.27
			c1.29,0.47,2.49,0.98,3.65,1.48c2.34,0.99,4.55,1.93,7.21,2.5c3.65,0.78,7.5,1.39,11.22,1.99c4.06,0.65,8.25,1.32,12.22,2.2
			c8.44,1.88,17.88,4.47,22.98,11.53c4.91,6.79,5.74,15.31,6.4,22.16c0.39,4.01,0.7,8.18,0.99,12.21c0.32,4.39,0.66,8.93,1.1,13.34
			c0.19,1.84,0.32,3.82,0.46,5.92c0.46,6.81,0.97,14.52,3.55,19.6L215.7,133.34z"/>
	</g>
</g>
<path class="st5" d="M241.14,254.11c-3.17-4.18-6.73-8.04-10.63-11.51c-6.44-5.75-13.8-10.46-21.84-13.88
	c-4.06-1.74-8.31-3.15-12.69-4.19c-5.78-1.38-11.81-2.12-18-2.15l-66.64-0.27c-25.71-0.11-48.71,12.15-63.35,31.14
	c-1.31,1.69-2.55,3.44-3.72,5.23c0,0.01,0,0.01,0,0.01c-8.07,12.38-12.78,27.11-12.85,42.88c0,0.77,0,1.56,0.02,2.33
	c11.16-10.04,46.9-34.17,111.13-6.34c36.95,16.03,66.2,11.28,85.26,3.55c2.18-0.88,4.24-1.8,6.14-2.74
	c11.59-5.67,18.12-11.81,18.79-12.46c0.7-0.68,1.6-1.11,2.51-1.27C252.75,273.28,247.84,262.98,241.14,254.11z"/>
<path class="st5" d="M257.24,302.29c-0.17,43.67-35.97,79.29-79.59,79.29h-0.31l-66.64-0.28c-39.02-0.16-71.59-28.74-78.08-65.96
	c-0.67-3.78-1.07-7.65-1.17-11.6v-0.03c11.16-10.04,46.9-34.17,111.13-6.34c36.95,16.03,66.2,11.28,85.26,3.55
	c2.18-0.88,4.24-1.8,6.14-2.74c11.59-5.67,18.12-11.81,18.79-12.46c0.7-0.68,1.6-1.11,2.51-1.27c0.77,3.42,1.34,6.91,1.65,10.48
	C257.14,297.34,257.26,299.79,257.24,302.29z"/>
<path class="st6" d="M256.93,294.92c-10.86,8.74-54.89,38.8-118.22,11.36c-70.39-30.51-102.26,5.91-103.59,7.47
	c-0.66,0.82-1.56,1.34-2.49,1.58c-0.67-3.78-1.07-7.65-1.17-11.6v-0.03c11.16-10.04,46.9-34.17,111.13-6.34
	c36.95,16.03,66.2,11.28,85.26,3.55c2.18-0.88,4.24-1.8,6.14-2.74c11.59-5.67,18.12-11.81,18.79-12.46c0.7-0.68,1.6-1.11,2.51-1.27
	C256.05,287.86,256.62,291.35,256.93,294.92z"/>
</svg>
